<svg width="443" height="227" viewBox="0 0 443 227" fill="none" xmlns="http://www.w3.org/2000/svg">
<path d="M305.392 0C230.324 8.18928 138.763 73.931 102.366 105.778L131.37 134.782C163.217 97.2477 242.607 17.7434 305.392 0Z" fill="#68B92E"/>
<path d="M65.8826 201.643C132.54 236.251 232.401 202.016 274 180.573C235.453 206.927 139.041 250.087 61.7726 211.899C-15.4961 173.711 58.3536 108.721 99.7653 81C17.8634 144.995 39.6033 188.093 65.8826 201.643Z" fill="#0093DD"/>
<path d="M13.6488 75.0684L0 114.309L85.305 206.438L122.839 146.725L61.4196 75.0684H13.6488Z" fill="#68B92E"/>
<path d="M147.649 73L134 112.24L219.305 204.37L256.839 144.656L195.42 73H147.649Z" fill="#EB891B"/>
<path d="M256.117 73.3567C189.46 38.7487 89.5986 72.9838 48 94.4273C86.5472 68.0735 182.959 24.9129 260.227 63.1011C337.496 101.289 263.646 166.279 222.235 194C304.137 130.005 282.397 86.9065 256.117 73.3567Z" fill="#0093DD"/>
<path d="M442.026 1C366.958 9.18928 275.397 74.931 239 106.778L268.004 135.782C299.851 98.2477 379.241 18.7434 442.026 1Z" fill="#EB891B"/>
</svg>
